# Blender v3.1.2 OBJ File: 'slclouds.blend'
# www.blender.org
mtllib slclouds2.mtl
o Cylinder
v 0.000000 -12.791455 -53.024704
v -0.000000 15.631499 -81.254555
v 10.344607 -12.791455 -52.005848
v 15.851978 15.631499 -79.693268
v 20.291677 -12.791455 -48.988438
v 31.094772 15.631499 -75.069412
v 29.458948 -12.791455 -44.088432
v 45.142612 15.631499 -67.560692
v 37.494129 -12.791455 -37.494129
v 57.455643 15.631499 -57.455643
v 44.088432 -12.791455 -29.458948
v 67.560692 15.631499 -45.142612
v 48.988438 -12.791455 -20.291677
v 75.069412 15.631499 -31.094772
v 52.005848 -12.791455 -10.344608
v 79.693268 15.631499 -15.851979
v 53.024704 -12.791455 0.000002
v 81.254555 15.631499 0.000003
v 52.005848 -12.791455 10.344607
v 79.693268 15.631499 15.851978
v 48.988441 -12.791455 20.291674
v 75.069427 15.631499 31.094770
v 44.088436 -12.791455 29.458946
v 67.560699 15.631499 45.142612
v 37.494129 -12.791455 37.494129
v 57.455643 15.631499 57.455643
v 29.458946 -12.791455 44.088436
v 45.142609 15.631499 67.560699
v 20.291679 -12.791455 48.988438
v 31.094774 15.631499 75.069412
v 10.344606 -12.791455 52.005852
v 15.851977 15.631499 79.693275
v -0.000005 -12.791455 53.024704
v -0.000007 15.631499 81.254555
v -10.344604 -12.791455 52.005852
v -15.851973 15.631499 79.693275
v -20.291677 -12.791455 48.988438
v -31.094772 15.631499 75.069412
v -29.458950 -12.791455 44.088428
v -45.142616 15.631499 67.560684
v -37.494129 -12.791455 37.494133
v -57.455643 15.631499 57.455647
v -44.088425 -12.791455 29.458960
v -67.560684 15.631499 45.142628
v -48.988438 -12.791455 20.291685
v -75.069412 15.631499 31.094786
v -52.005848 -12.791455 10.344609
v -79.693268 15.631499 15.851981
v -53.024704 -12.791455 -0.000001
v -81.254555 15.631499 -0.000001
v -52.005848 -12.791455 -10.344612
v -79.693268 15.631499 -15.851985
v -48.988438 -12.791455 -20.291685
v -75.069412 15.631499 -31.094786
v -44.088436 -12.791455 -29.458939
v -67.560699 15.631499 -45.142597
v -37.494137 -12.791455 -37.494129
v -57.455662 15.631499 -57.455643
v -29.458950 -12.791455 -44.088432
v -45.142616 15.631499 -67.560692
v -20.291677 -12.791455 -48.988441
v -31.094772 15.631499 -75.069427
v -10.344603 -12.791455 -52.005852
v -15.851970 15.631499 -79.693275
v -0.000000 -12.452485 -53.023441
v -0.000000 16.071491 -81.252907
v 10.344361 -12.452485 -52.004604
v 15.851659 16.071491 -79.691658
v 20.291191 -12.452485 -48.987267
v 31.094143 16.071491 -75.067894
v 29.458244 -12.452485 -44.087379
v 45.141701 16.071491 -67.559326
v 37.493233 -12.452485 -37.493233
v 57.454483 16.071491 -57.454483
v 44.087379 -12.452485 -29.458244
v 67.559326 16.071491 -45.141701
v 48.987267 -12.452485 -20.291191
v 75.067894 16.071491 -31.094143
v 52.004604 -12.452485 -10.344362
v 79.691658 16.071491 -15.851660
v 53.023441 -12.452485 0.000002
v 81.252907 16.071491 0.000003
v 52.004604 -12.452485 10.344361
v 79.691658 16.071491 15.851658
v 48.987270 -12.452485 20.291189
v 75.067902 16.071491 31.094141
v 44.087383 -12.452485 29.458242
v 67.559334 16.071491 45.141697
v 37.493233 -12.452485 37.493233
v 57.454483 16.071491 57.454483
v 29.458242 -12.452485 44.087383
v 45.141693 16.071491 67.559334
v 20.291195 -12.452485 48.987267
v 31.094147 16.071491 75.067894
v 10.344360 -12.452485 52.004608
v 15.851657 16.071491 79.691658
v -0.000005 -12.452485 53.023441
v -0.000007 16.071491 81.252907
v -10.344357 -12.452485 52.004608
v -15.851652 16.071491 79.691658
v -20.291191 -12.452485 48.987267
v -31.094143 16.071491 75.067894
v -29.458248 -12.452485 44.087376
v -45.141701 16.071491 67.559319
v -37.493233 -12.452485 37.493237
v -57.454483 16.071491 57.454491
v -44.087368 -12.452485 29.458256
v -67.559311 16.071491 45.141716
v -48.987267 -12.452485 20.291201
v -75.067894 16.071491 31.094156
v -52.004604 -12.452485 10.344363
v -79.691658 16.071491 15.851661
v -53.023441 -12.452485 -0.000001
v -81.252907 16.071491 -0.000001
v -52.004604 -12.452485 -10.344365
v -79.691658 16.071491 -15.851665
v -48.987267 -12.452485 -20.291201
v -75.067894 16.071491 -31.094156
v -44.087383 -12.452485 -29.458235
v -67.559334 16.071491 -45.141685
v -37.493244 -12.452485 -37.493233
v -57.454502 16.071491 -57.454483
v -29.458248 -12.452485 -44.087379
v -45.141701 16.071491 -67.559326
v -20.291191 -12.452485 -48.987270
v -31.094143 16.071491 -75.067902
v -10.344356 -12.452485 -52.004608
v -15.851649 16.071491 -79.691658
vt 0.000000 1.000001
vt 0.000000 0.010139
vt 0.031250 0.010139
vt 0.031250 1.000001
vt 0.062500 0.010139
vt 0.062500 1.000001
vt 0.093750 0.010139
vt 0.093750 1.000000
vt 0.125000 0.010139
vt 0.125000 1.000000
vt 0.156250 0.010138
vt 0.156250 1.000000
vt 0.187500 0.010138
vt 0.187500 1.000000
vt 0.218750 0.010138
vt 0.218750 1.000000
vt 0.250000 0.010138
vt 0.250000 1.000000
vt 0.281250 0.010138
vt 0.281250 1.000000
vt 0.312500 0.010138
vt 0.312500 1.000000
vt 0.343750 0.010138
vt 0.343750 1.000000
vt 0.375000 0.010138
vt 0.375000 1.000000
vt 0.406250 0.010138
vt 0.406250 1.000000
vt 0.437500 0.010138
vt 0.437500 1.000000
vt 0.468750 0.010138
vt 0.468750 1.000000
vt 0.500000 0.010138
vt 0.500000 1.000000
vt 0.531250 0.010138
vt 0.531250 1.000000
vt 0.562500 0.010138
vt 0.562500 1.000000
vt 0.593750 0.010138
vt 0.593750 1.000000
vt 0.625000 0.010138
vt 0.625000 1.000000
vt 0.656250 0.010138
vt 0.656250 1.000000
vt 0.687500 0.010138
vt 0.687500 1.000000
vt 0.718750 0.010138
vt 0.718750 1.000000
vt 0.750000 0.010138
vt 0.750000 1.000000
vt 0.781250 0.010138
vt 0.781250 1.000000
vt 0.812500 0.010138
vt 0.812500 1.000000
vt 0.843750 0.010138
vt 0.843750 1.000000
vt 0.875000 0.010138
vt 0.875000 1.000000
vt 0.906250 0.010138
vt 0.906250 1.000000
vt 0.937500 0.010137
vt 0.937500 1.000000
vt 0.968750 0.010137
vt 0.968750 1.000000
vt 1.000000 0.010137
vt 1.000000 0.999999
vt 0.000000 1.000001
vt 0.031250 1.000001
vt 0.031250 0.010139
vt 0.000000 0.010139
vt 0.062500 1.000001
vt 0.062500 0.010139
vt 0.093750 1.000000
vt 0.093750 0.010139
vt 0.125000 1.000000
vt 0.125000 0.010139
vt 0.156250 1.000000
vt 0.156250 0.010138
vt 0.187500 1.000000
vt 0.187500 0.010138
vt 0.218750 1.000000
vt 0.218750 0.010138
vt 0.250000 1.000000
vt 0.250000 0.010138
vt 0.281250 1.000000
vt 0.281250 0.010138
vt 0.312500 1.000000
vt 0.312500 0.010138
vt 0.343750 1.000000
vt 0.343750 0.010138
vt 0.375000 1.000000
vt 0.375000 0.010138
vt 0.406250 1.000000
vt 0.406250 0.010138
vt 0.437500 1.000000
vt 0.437500 0.010138
vt 0.468750 1.000000
vt 0.468750 0.010138
vt 0.500000 1.000000
vt 0.500000 0.010138
vt 0.531250 1.000000
vt 0.531250 0.010138
vt 0.562500 1.000000
vt 0.562500 0.010138
vt 0.593750 1.000000
vt 0.593750 0.010138
vt 0.625000 1.000000
vt 0.625000 0.010138
vt 0.656250 1.000000
vt 0.656250 0.010138
vt 0.687500 1.000000
vt 0.687500 0.010138
vt 0.718750 1.000000
vt 0.718750 0.010138
vt 0.750000 1.000000
vt 0.750000 0.010138
vt 0.781250 1.000000
vt 0.781250 0.010138
vt 0.812500 1.000000
vt 0.812500 0.010138
vt 0.843750 1.000000
vt 0.843750 0.010138
vt 0.875000 1.000000
vt 0.875000 0.010138
vt 0.906250 1.000000
vt 0.906250 0.010138
vt 0.937500 1.000000
vt 0.937500 0.010137
vt 0.968750 1.000000
vt 0.968750 0.010137
vt 1.000000 0.999999
vt 1.000000 0.010137
vn 0.0697 -0.7030 -0.7078
vn 0.2065 -0.7030 -0.6806
vn 0.3353 -0.7030 -0.6272
vn 0.4512 -0.7030 -0.5498
vn 0.5498 -0.7030 -0.4512
vn 0.6272 -0.7030 -0.3353
vn 0.6806 -0.7030 -0.2065
vn 0.7078 -0.7030 -0.0697
vn 0.7078 -0.7030 0.0697
vn 0.6806 -0.7030 0.2065
vn 0.6272 -0.7030 0.3353
vn 0.5498 -0.7030 0.4512
vn 0.4512 -0.7030 0.5498
vn 0.3353 -0.7030 0.6272
vn 0.2065 -0.7030 0.6806
vn 0.0697 -0.7030 0.7078
vn -0.0697 -0.7030 0.7078
vn -0.2065 -0.7030 0.6806
vn -0.3353 -0.7030 0.6272
vn -0.4512 -0.7030 0.5498
vn -0.5498 -0.7030 0.4512
vn -0.6272 -0.7030 0.3353
vn -0.6806 -0.7030 0.2065
vn -0.7078 -0.7030 0.0697
vn -0.7078 -0.7030 -0.0697
vn -0.6806 -0.7030 -0.2065
vn -0.6272 -0.7030 -0.3353
vn -0.5498 -0.7030 -0.4512
vn -0.4512 -0.7030 -0.5498
vn -0.3353 -0.7030 -0.6272
vn -0.2065 -0.7030 -0.6806
vn -0.0697 -0.7030 -0.7078
vn -0.0698 0.7017 0.7090
vn -0.2068 0.7017 0.6818
vn -0.3359 0.7017 0.6283
vn -0.4520 0.7017 0.5507
vn -0.5507 0.7017 0.4520
vn -0.6283 0.7017 0.3359
vn -0.6818 0.7017 0.2068
vn -0.7090 0.7017 0.0698
vn -0.7090 0.7017 -0.0698
vn -0.6818 0.7017 -0.2068
vn -0.6283 0.7017 -0.3359
vn -0.5507 0.7017 -0.4520
vn -0.4520 0.7017 -0.5507
vn -0.3359 0.7017 -0.6283
vn -0.2068 0.7017 -0.6818
vn -0.0698 0.7017 -0.7090
vn 0.0698 0.7017 -0.7090
vn 0.2068 0.7017 -0.6818
vn 0.3359 0.7017 -0.6283
vn 0.4520 0.7017 -0.5507
vn 0.5507 0.7017 -0.4520
vn 0.6283 0.7017 -0.3359
vn 0.6818 0.7017 -0.2068
vn 0.7090 0.7017 -0.0698
vn 0.7090 0.7017 0.0698
vn 0.6818 0.7017 0.2068
vn 0.6283 0.7017 0.3359
vn 0.5507 0.7017 0.4520
vn 0.4520 0.7017 0.5507
vn 0.3359 0.7017 0.6283
vn 0.2068 0.7017 0.6818
vn 0.0698 0.7017 0.7090
vn -0.0980 -0.0037 0.9952
vn 0.0980 0.0037 -0.9952
vn -0.2903 -0.0037 0.9569
vn 0.2903 0.0037 -0.9569
vn -0.4714 -0.0037 0.8819
vn 0.4714 0.0037 -0.8819
vn -0.6344 -0.0037 0.7730
vn 0.6344 0.0037 -0.7730
vn -0.7730 -0.0037 0.6344
vn 0.7730 0.0037 -0.6344
vn -0.8819 -0.0037 0.4714
vn 0.8819 0.0037 -0.4714
vn -0.9569 -0.0037 0.2903
vn 0.9569 0.0037 -0.2903
vn -0.9952 -0.0037 0.0980
vn 0.9952 0.0037 -0.0980
vn -0.9952 -0.0037 -0.0980
vn 0.9952 0.0037 0.0980
vn -0.9569 -0.0037 -0.2903
vn 0.9569 0.0037 0.2903
vn -0.8819 -0.0037 -0.4714
vn 0.8819 0.0037 0.4714
vn -0.7730 -0.0037 -0.6344
vn 0.7730 0.0037 0.6344
vn -0.6344 -0.0037 -0.7730
vn 0.6344 0.0037 0.7730
vn -0.4714 -0.0037 -0.8819
vn 0.4714 0.0037 0.8819
vn -0.2903 -0.0037 -0.9569
vn 0.2903 0.0037 0.9569
vn -0.0980 -0.0037 -0.9952
vn 0.0980 0.0037 0.9952
vn 0.0980 -0.0037 -0.9952
vn -0.0980 0.0037 0.9952
vn 0.2903 -0.0037 -0.9569
vn -0.2903 0.0037 0.9569
vn 0.4714 -0.0037 -0.8819
vn -0.4714 0.0037 0.8819
vn 0.6344 -0.0037 -0.7730
vn -0.6344 0.0037 0.7730
vn 0.7730 -0.0037 -0.6344
vn -0.7730 0.0037 0.6344
vn 0.8819 -0.0037 -0.4714
vn -0.8819 0.0037 0.4714
vn 0.9569 -0.0037 -0.2903
vn -0.9569 0.0037 0.2903
vn 0.9952 -0.0037 -0.0980
vn -0.9952 0.0037 0.0980
vn 0.9952 -0.0037 0.0980
vn -0.9952 0.0037 -0.0980
vn 0.9569 -0.0037 0.2903
vn -0.9569 0.0037 -0.2903
vn 0.8819 -0.0037 0.4714
vn -0.8819 0.0037 -0.4714
vn 0.7730 -0.0037 0.6344
vn -0.7730 0.0037 -0.6344
vn 0.6344 -0.0037 0.7730
vn -0.6344 0.0037 -0.7730
vn 0.4714 -0.0037 0.8819
vn -0.4714 0.0037 -0.8819
vn 0.2903 -0.0037 0.9569
vn -0.2903 0.0037 -0.9569
vn 0.0980 -0.0037 0.9952
vn -0.0980 0.0037 -0.9952
usemtl Material.001
s off
f 1/1/1 2/2/1 4/3/1 3/4/1
f 3/4/2 4/3/2 6/5/2 5/6/2
f 5/6/3 6/5/3 8/7/3 7/8/3
f 7/8/4 8/7/4 10/9/4 9/10/4
f 9/10/5 10/9/5 12/11/5 11/12/5
f 11/12/6 12/11/6 14/13/6 13/14/6
f 13/14/7 14/13/7 16/15/7 15/16/7
f 15/16/8 16/15/8 18/17/8 17/18/8
f 17/18/9 18/17/9 20/19/9 19/20/9
f 19/20/10 20/19/10 22/21/10 21/22/10
f 21/22/11 22/21/11 24/23/11 23/24/11
f 23/24/12 24/23/12 26/25/12 25/26/12
f 25/26/13 26/25/13 28/27/13 27/28/13
f 27/28/14 28/27/14 30/29/14 29/30/14
f 29/30/15 30/29/15 32/31/15 31/32/15
f 31/32/16 32/31/16 34/33/16 33/34/16
f 33/34/17 34/33/17 36/35/17 35/36/17
f 35/36/18 36/35/18 38/37/18 37/38/18
f 37/38/19 38/37/19 40/39/19 39/40/19
f 39/40/20 40/39/20 42/41/20 41/42/20
f 41/42/21 42/41/21 44/43/21 43/44/21
f 43/44/22 44/43/22 46/45/22 45/46/22
f 45/46/23 46/45/23 48/47/23 47/48/23
f 47/48/24 48/47/24 50/49/24 49/50/24
f 49/50/25 50/49/25 52/51/25 51/52/25
f 51/52/26 52/51/26 54/53/26 53/54/26
f 53/54/27 54/53/27 56/55/27 55/56/27
f 55/56/28 56/55/28 58/57/28 57/58/28
f 57/58/29 58/57/29 60/59/29 59/60/29
f 59/60/30 60/59/30 62/61/30 61/62/30
f 61/62/31 62/61/31 64/63/31 63/64/31
f 63/64/32 64/63/32 2/65/32 1/66/32
f 65/67/33 67/68/33 68/69/33 66/70/33
f 67/68/34 69/71/34 70/72/34 68/69/34
f 69/71/35 71/73/35 72/74/35 70/72/35
f 71/73/36 73/75/36 74/76/36 72/74/36
f 73/75/37 75/77/37 76/78/37 74/76/37
f 75/77/38 77/79/38 78/80/38 76/78/38
f 77/79/39 79/81/39 80/82/39 78/80/39
f 79/81/40 81/83/40 82/84/40 80/82/40
f 81/83/41 83/85/41 84/86/41 82/84/41
f 83/85/42 85/87/42 86/88/42 84/86/42
f 85/87/43 87/89/43 88/90/43 86/88/43
f 87/89/44 89/91/44 90/92/44 88/90/44
f 89/91/45 91/93/45 92/94/45 90/92/45
f 91/93/46 93/95/46 94/96/46 92/94/46
f 93/95/47 95/97/47 96/98/47 94/96/47
f 95/97/48 97/99/48 98/100/48 96/98/48
f 97/99/49 99/101/49 100/102/49 98/100/49
f 99/101/50 101/103/50 102/104/50 100/102/50
f 101/103/51 103/105/51 104/106/51 102/104/51
f 103/105/52 105/107/52 106/108/52 104/106/52
f 105/107/53 107/109/53 108/110/53 106/108/53
f 107/109/54 109/111/54 110/112/54 108/110/54
f 109/111/55 111/113/55 112/114/55 110/112/55
f 111/113/56 113/115/56 114/116/56 112/114/56
f 113/115/57 115/117/57 116/118/57 114/116/57
f 115/117/58 117/119/58 118/120/58 116/118/58
f 117/119/59 119/121/59 120/122/59 118/120/59
f 119/121/60 121/123/60 122/124/60 120/122/60
f 121/123/61 123/125/61 124/126/61 122/124/61
f 123/125/62 125/127/62 126/128/62 124/126/62
f 125/127/63 127/129/63 128/130/63 126/128/63
f 127/129/64 65/131/64 66/132/64 128/130/64
f 1/1/65 3/4/65 67/68/65 65/67/65
f 4/3/66 2/2/66 66/70/66 68/69/66
f 3/4/67 5/6/67 69/71/67 67/68/67
f 6/5/68 4/3/68 68/69/68 70/72/68
f 5/6/69 7/8/69 71/73/69 69/71/69
f 8/7/70 6/5/70 70/72/70 72/74/70
f 7/8/71 9/10/71 73/75/71 71/73/71
f 10/9/72 8/7/72 72/74/72 74/76/72
f 9/10/73 11/12/73 75/77/73 73/75/73
f 12/11/74 10/9/74 74/76/74 76/78/74
f 11/12/75 13/14/75 77/79/75 75/77/75
f 14/13/76 12/11/76 76/78/76 78/80/76
f 13/14/77 15/16/77 79/81/77 77/79/77
f 16/15/78 14/13/78 78/80/78 80/82/78
f 15/16/79 17/18/79 81/83/79 79/81/79
f 18/17/80 16/15/80 80/82/80 82/84/80
f 17/18/81 19/20/81 83/85/81 81/83/81
f 20/19/82 18/17/82 82/84/82 84/86/82
f 19/20/83 21/22/83 85/87/83 83/85/83
f 22/21/84 20/19/84 84/86/84 86/88/84
f 21/22/85 23/24/85 87/89/85 85/87/85
f 24/23/86 22/21/86 86/88/86 88/90/86
f 23/24/87 25/26/87 89/91/87 87/89/87
f 26/25/88 24/23/88 88/90/88 90/92/88
f 25/26/89 27/28/89 91/93/89 89/91/89
f 28/27/90 26/25/90 90/92/90 92/94/90
f 27/28/91 29/30/91 93/95/91 91/93/91
f 30/29/92 28/27/92 92/94/92 94/96/92
f 29/30/93 31/32/93 95/97/93 93/95/93
f 32/31/94 30/29/94 94/96/94 96/98/94
f 31/32/95 33/34/95 97/99/95 95/97/95
f 34/33/96 32/31/96 96/98/96 98/100/96
f 33/34/97 35/36/97 99/101/97 97/99/97
f 36/35/98 34/33/98 98/100/98 100/102/98
f 35/36/99 37/38/99 101/103/99 99/101/99
f 38/37/100 36/35/100 100/102/100 102/104/100
f 37/38/101 39/40/101 103/105/101 101/103/101
f 40/39/102 38/37/102 102/104/102 104/106/102
f 39/40/103 41/42/103 105/107/103 103/105/103
f 42/41/104 40/39/104 104/106/104 106/108/104
f 41/42/105 43/44/105 107/109/105 105/107/105
f 44/43/106 42/41/106 106/108/106 108/110/106
f 43/44/107 45/46/107 109/111/107 107/109/107
f 46/45/108 44/43/108 108/110/108 110/112/108
f 45/46/109 47/48/109 111/113/109 109/111/109
f 48/47/110 46/45/110 110/112/110 112/114/110
f 47/48/111 49/50/111 113/115/111 111/113/111
f 50/49/112 48/47/112 112/114/112 114/116/112
f 49/50/113 51/52/113 115/117/113 113/115/113
f 52/51/114 50/49/114 114/116/114 116/118/114
f 51/52/115 53/54/115 117/119/115 115/117/115
f 54/53/116 52/51/116 116/118/116 118/120/116
f 53/54/117 55/56/117 119/121/117 117/119/117
f 56/55/118 54/53/118 118/120/118 120/122/118
f 55/56/119 57/58/119 121/123/119 119/121/119
f 58/57/120 56/55/120 120/122/120 122/124/120
f 57/58/121 59/60/121 123/125/121 121/123/121
f 60/59/122 58/57/122 122/124/122 124/126/122
f 59/60/123 61/62/123 125/127/123 123/125/123
f 62/61/124 60/59/124 124/126/124 126/128/124
f 61/62/125 63/64/125 127/129/125 125/127/125
f 64/63/126 62/61/126 126/128/126 128/130/126
f 63/64/127 1/66/127 65/131/127 127/129/127
f 2/65/128 64/63/128 128/130/128 66/132/128
o Cylinder.001_Cylinder.002
v -61.902328 -11.056307 18.453297
v -123.448616 24.879892 36.800476
v -64.312943 -11.056307 6.022176
v -128.255981 24.879892 12.009726
v -64.252052 -11.056307 -6.640372
v -128.134567 24.879892 -13.242544
v -61.722004 -11.056307 -19.047741
v -123.089043 24.879892 -37.985920
v -56.820004 -11.056307 -30.723101
v -113.313194 24.879892 -61.269493
v -49.734447 -11.056307 -41.217796
v -99.182846 24.879892 -82.198555
v -40.737614 -11.056307 -50.128513
v -81.240944 24.879892 -99.968712
v -30.175266 -11.056307 -57.112820
v -60.176994 24.879892 -113.897148
v -18.453295 -11.056307 -61.902325
v -36.800468 24.879892 -123.448601
v -6.022173 -11.056307 -64.312935
v -12.009718 24.879892 -128.255966
v 6.640368 -11.056307 -64.252060
v 13.242537 24.879892 -128.134583
v 19.047729 -11.056307 -61.722008
v 37.985931 24.879892 -123.089035
v 30.723101 -11.056307 -56.820004
v 61.269493 24.879892 -113.313194
v 41.217804 -11.056307 -49.734447
v 82.198555 24.879892 -99.182838
v 50.128513 -11.056307 -40.737614
v 99.968712 24.879892 -81.240944
v 57.112827 -11.056307 -30.175266
v 113.897163 24.879892 -60.176994
v 61.902328 -11.056307 -18.453291
v 123.448593 24.879892 -36.800457
v 64.312943 -11.056307 -6.022179
v 128.255981 24.879892 -12.009733
v 64.252060 -11.056307 6.640374
v 128.134567 24.879892 13.242548
v 61.722000 -11.056307 19.047741
v 123.089012 24.879892 37.985935
v 56.820007 -11.056307 30.723099
v 113.313202 24.879892 61.269493
v 49.734451 -11.056307 41.217789
v 99.182877 24.879892 82.198509
v 40.737621 -11.056307 50.128510
v 81.240959 24.879892 99.968704
v 30.175270 -11.056307 57.112827
v 60.176994 24.879892 113.897148
v 18.453299 -11.056307 61.902332
v 36.800468 24.879892 123.448601
v 6.022170 -11.056307 64.312943
v 12.009708 24.879892 128.255981
v -6.640382 -11.056307 64.252060
v -13.242567 24.879892 128.134567
v -19.047718 -11.056307 61.722008
v -37.985886 24.879892 123.089020
v -30.723099 -11.056307 56.820011
v -61.269485 24.879892 113.313225
v -41.217796 -11.056307 49.734444
v -82.198547 24.879892 99.182861
v -50.128521 -11.056307 40.737614
v -99.968727 24.879892 81.240952
v -57.112831 -11.056307 30.175262
v -113.897179 24.879892 60.176987
v -61.901741 -10.656586 18.453125
v -123.448044 25.279612 36.800304
v -64.312332 -10.656586 6.022118
v -128.255386 25.279612 12.009672
v -64.251450 -10.656586 -6.640310
v -128.133972 25.279612 -13.242477
v -61.721420 -10.656586 -19.047558
v -123.088455 25.279612 -37.985744
v -56.819462 -10.656586 -30.722813
v -113.312653 25.279612 -61.269203
v -49.733982 -10.656586 -41.217411
v -99.182373 25.279612 -82.198174
v -40.737228 -10.656586 -50.128044
v -81.240562 25.279612 -99.968231
v -30.174982 -10.656586 -57.112278
v -60.176712 25.279612 -113.896606
v -18.453119 -10.656586 -61.901737
v -36.800293 25.279612 -123.448029
v -6.022117 -10.656586 -64.312332
v -12.009665 25.279613 -128.255371
v 6.640306 -10.656586 -64.251457
v 13.242472 25.279612 -128.133972
v 19.047548 -10.656586 -61.721428
v 37.985756 25.279612 -123.088455
v 30.722813 -10.656586 -56.819462
v 61.269203 25.279612 -113.312653
v 41.217419 -10.656586 -49.733978
v 82.198174 25.279612 -99.182373
v 50.128044 -10.656586 -40.737232
v 99.968231 25.279612 -81.240562
v 57.112289 -10.656586 -30.174980
v 113.896622 25.279612 -60.176712
v 61.901745 -10.656586 -18.453119
v 123.448021 25.279612 -36.800282
v 64.312340 -10.656586 -6.022122
v 128.255386 25.279612 -12.009680
v 64.251450 -10.656586 6.640312
v 128.133972 25.279612 13.242481
v 61.721420 -10.656586 19.047558
v 123.088425 25.279612 37.985764
v 56.819466 -10.656586 30.722813
v 113.312660 25.279613 61.269203
v 49.733982 -10.656586 41.217400
v 99.182404 25.279612 82.198120
v 40.737236 -10.656586 50.128040
v 81.240578 25.279612 99.968231
v 30.174986 -10.656586 57.112286
v 60.176712 25.279612 113.896606
v 18.453123 -10.656586 61.901745
v 36.800297 25.279612 123.448029
v 6.022114 -10.656586 64.312340
v 12.009655 25.279612 128.255371
v -6.640320 -10.656586 64.251457
v -13.242500 25.279612 128.133972
v -19.047537 -10.656586 61.721424
v -37.985710 25.279612 123.088440
v -30.722811 -10.656586 56.819469
v -61.269196 25.279612 113.312683
v -41.217411 -10.656586 49.733978
v -82.198166 25.279612 99.182388
v -50.128052 -10.656586 40.737232
v -99.968246 25.279612 81.240562
v -57.112289 -10.656586 30.174978
v -113.896645 25.279612 60.176704
vt 0.000000 1.000001
vt 0.000000 0.010139
vt 0.031250 0.010139
vt 0.031250 1.000001
vt 0.062500 0.010139
vt 0.062500 1.000001
vt 0.093750 0.010139
vt 0.093750 1.000000
vt 0.125000 0.010139
vt 0.125000 1.000000
vt 0.156250 0.010138
vt 0.156250 1.000000
vt 0.187500 0.010138
vt 0.187500 1.000000
vt 0.218750 0.010138
vt 0.218750 1.000000
vt 0.250000 0.010138
vt 0.250000 1.000000
vt 0.281250 0.010138
vt 0.281250 1.000000
vt 0.312500 0.010138
vt 0.312500 1.000000
vt 0.343750 0.010138
vt 0.343750 1.000000
vt 0.375000 0.010138
vt 0.375000 1.000000
vt 0.406250 0.010138
vt 0.406250 1.000000
vt 0.437500 0.010138
vt 0.437500 1.000000
vt 0.468750 0.010138
vt 0.468750 1.000000
vt 0.500000 0.010138
vt 0.500000 1.000000
vt 0.531250 0.010138
vt 0.531250 1.000000
vt 0.562500 0.010138
vt 0.562500 1.000000
vt 0.593750 0.010138
vt 0.593750 1.000000
vt 0.625000 0.010138
vt 0.625000 1.000000
vt 0.656250 0.010138
vt 0.656250 1.000000
vt 0.687500 0.010138
vt 0.687500 1.000000
vt 0.718750 0.010138
vt 0.718750 1.000000
vt 0.750000 0.010138
vt 0.750000 1.000000
vt 0.781250 0.010138
vt 0.781250 1.000000
vt 0.812500 0.010138
vt 0.812500 1.000000
vt 0.843750 0.010138
vt 0.843750 1.000000
vt 0.875000 0.010138
vt 0.875000 1.000000
vt 0.906250 0.010138
vt 0.906250 1.000000
vt 0.937500 0.010137
vt 0.937500 1.000000
vt 0.968750 0.010137
vt 0.968750 1.000000
vt 1.000000 0.010137
vt 1.000000 0.999999
vt 0.000000 1.000001
vt 0.031250 1.000001
vt 0.031250 0.010139
vt 0.000000 0.010139
vt 0.062500 1.000001
vt 0.062500 0.010139
vt 0.093750 1.000000
vt 0.093750 0.010139
vt 0.125000 1.000000
vt 0.125000 0.010139
vt 0.156250 1.000000
vt 0.156250 0.010138
vt 0.187500 1.000000
vt 0.187500 0.010138
vt 0.218750 1.000000
vt 0.218750 0.010138
vt 0.250000 1.000000
vt 0.250000 0.010138
vt 0.281250 1.000000
vt 0.281250 0.010138
vt 0.312500 1.000000
vt 0.312500 0.010138
vt 0.343750 1.000000
vt 0.343750 0.010138
vt 0.375000 1.000000
vt 0.375000 0.010138
vt 0.406250 1.000000
vt 0.406250 0.010138
vt 0.437500 1.000000
vt 0.437500 0.010138
vt 0.468750 1.000000
vt 0.468750 0.010138
vt 0.500000 1.000000
vt 0.500000 0.010138
vt 0.531250 1.000000
vt 0.531250 0.010138
vt 0.562500 1.000000
vt 0.562500 0.010138
vt 0.593750 1.000000
vt 0.593750 0.010138
vt 0.625000 1.000000
vt 0.625000 0.010138
vt 0.656250 1.000000
vt 0.656250 0.010138
vt 0.687500 1.000000
vt 0.687500 0.010138
vt 0.718750 1.000000
vt 0.718750 0.010138
vt 0.750000 1.000000
vt 0.750000 0.010138
vt 0.781250 1.000000
vt 0.781250 0.010138
vt 0.812500 1.000000
vt 0.812500 0.010138
vt 0.843750 1.000000
vt 0.843750 0.010138
vt 0.875000 1.000000
vt 0.875000 0.010138
vt 0.906250 1.000000
vt 0.906250 0.010138
vt 0.937500 1.000000
vt 0.937500 0.010137
vt 0.968750 1.000000
vt 0.968750 0.010137
vt 1.000000 0.999999
vt 1.000000 0.010137
vn -0.4811 -0.8717 0.0933
vn -0.4901 -0.8717 -0.0024
vn -0.4802 -0.8717 -0.0979
vn -0.4519 -0.8717 -0.1897
vn -0.4062 -0.8717 -0.2742
vn -0.3449 -0.8717 -0.3482
vn -0.2703 -0.8717 -0.4088
vn -0.1854 -0.8717 -0.4537
vn -0.0933 -0.8717 -0.4811
vn 0.0024 -0.8717 -0.4901
vn 0.0979 -0.8717 -0.4802
vn 0.1897 -0.8717 -0.4519
vn 0.2742 -0.8717 -0.4062
vn 0.3482 -0.8717 -0.3449
vn 0.4088 -0.8717 -0.2703
vn 0.4537 -0.8717 -0.1854
vn 0.4811 -0.8717 -0.0933
vn 0.4901 -0.8717 0.0024
vn 0.4802 -0.8717 0.0979
vn 0.4519 -0.8717 0.1897
vn 0.4062 -0.8717 0.2742
vn 0.3449 -0.8717 0.3482
vn 0.2703 -0.8717 0.4088
vn 0.1854 -0.8717 0.4537
vn 0.0933 -0.8717 0.4811
vn -0.0024 -0.8717 0.4901
vn -0.0979 -0.8717 0.4802
vn -0.1897 -0.8717 0.4519
vn -0.2742 -0.8717 0.4062
vn -0.3482 -0.8717 0.3449
vn -0.4088 -0.8717 0.2703
vn -0.4537 -0.8717 0.1854
vn 0.4811 0.8717 -0.0933
vn 0.4901 0.8717 0.0024
vn 0.4802 0.8717 0.0979
vn 0.4519 0.8717 0.1897
vn 0.4062 0.8717 0.2742
vn 0.3449 0.8717 0.3482
vn 0.2703 0.8717 0.4088
vn 0.1854 0.8717 0.4537
vn 0.0933 0.8717 0.4811
vn -0.0024 0.8717 0.4901
vn -0.0979 0.8717 0.4802
vn -0.1897 0.8717 0.4519
vn -0.2742 0.8717 0.4062
vn -0.3482 0.8717 0.3449
vn -0.4088 0.8717 0.2703
vn -0.4537 0.8717 0.1854
vn -0.4811 0.8717 0.0933
vn -0.4901 0.8717 -0.0024
vn -0.4802 0.8717 -0.0979
vn -0.4519 0.8717 -0.1897
vn -0.4062 0.8717 -0.2742
vn -0.3449 0.8717 -0.3482
vn -0.2703 0.8717 -0.4088
vn -0.1854 0.8717 -0.4537
vn -0.0933 0.8717 -0.4811
vn 0.0024 0.8717 -0.4901
vn 0.0979 0.8717 -0.4802
vn 0.1897 0.8717 -0.4519
vn 0.2742 0.8717 -0.4062
vn 0.3482 0.8717 -0.3449
vn 0.4088 0.8717 -0.2703
vn 0.4537 0.8717 -0.1854
vn 0.9817 -0.0015 -0.1904
vn -0.9817 0.0015 0.1904
vn 1.0000 -0.0015 0.0048
vn -1.0000 0.0015 -0.0048
vn 0.9798 -0.0015 0.1998
vn -0.9798 0.0015 -0.1998
vn 0.9220 -0.0015 0.3871
vn -0.9220 0.0015 -0.3871
vn 0.8288 -0.0015 0.5596
vn -0.8288 0.0015 -0.5596
vn 0.7037 -0.0015 0.7105
vn -0.7037 0.0015 -0.7105
vn 0.5516 -0.0015 0.8341
vn -0.5516 0.0015 -0.8341
vn 0.3782 -0.0015 0.9257
vn -0.3782 0.0015 -0.9257
vn 0.1904 -0.0015 0.9817
vn -0.1904 0.0015 -0.9817
vn -0.0048 -0.0015 1.0000
vn 0.0048 0.0015 -1.0000
vn -0.1998 -0.0015 0.9798
vn 0.1998 0.0015 -0.9798
vn -0.3871 -0.0015 0.9220
vn 0.3871 0.0015 -0.9220
vn -0.5596 -0.0015 0.8288
vn 0.5596 0.0015 -0.8288
vn -0.7105 -0.0015 0.7037
vn 0.7105 0.0015 -0.7037
vn -0.8341 -0.0015 0.5516
vn 0.8341 0.0015 -0.5516
vn -0.9257 -0.0015 0.3782
vn 0.9257 0.0015 -0.3782
vn -0.9817 -0.0015 0.1904
vn 0.9817 0.0015 -0.1904
vn -1.0000 -0.0015 -0.0048
vn 1.0000 0.0015 0.0048
vn -0.9798 -0.0015 -0.1998
vn 0.9798 0.0015 0.1998
vn -0.9220 -0.0015 -0.3871
vn 0.9220 0.0015 0.3871
vn -0.8288 -0.0015 -0.5596
vn 0.8288 0.0015 0.5596
vn -0.7037 -0.0015 -0.7105
vn 0.7037 0.0015 0.7105
vn -0.5516 -0.0015 -0.8341
vn 0.5516 0.0015 0.8341
vn -0.3782 -0.0015 -0.9257
vn 0.3782 0.0015 0.9257
vn -0.1904 -0.0015 -0.9817
vn 0.1904 0.0015 0.9817
vn 0.0048 -0.0015 -1.0000
vn -0.0048 0.0015 1.0000
vn 0.1998 -0.0015 -0.9798
vn -0.1998 0.0015 0.9798
vn 0.3871 -0.0015 -0.9220
vn -0.3871 0.0015 0.9220
vn 0.5596 -0.0015 -0.8288
vn -0.5596 0.0015 0.8288
vn 0.7105 -0.0015 -0.7037
vn -0.7105 0.0015 0.7037
vn 0.8341 -0.0015 -0.5516
vn -0.8341 0.0015 0.5516
vn 0.9257 -0.0015 -0.3782
vn -0.9257 0.0015 0.3782
usemtl Material.001
s off
f 129/133/129 130/134/129 132/135/129 131/136/129
f 131/136/130 132/135/130 134/137/130 133/138/130
f 133/138/131 134/137/131 136/139/131 135/140/131
f 135/140/132 136/139/132 138/141/132 137/142/132
f 137/142/133 138/141/133 140/143/133 139/144/133
f 139/144/134 140/143/134 142/145/134 141/146/134
f 141/146/135 142/145/135 144/147/135 143/148/135
f 143/148/136 144/147/136 146/149/136 145/150/136
f 145/150/137 146/149/137 148/151/137 147/152/137
f 147/152/138 148/151/138 150/153/138 149/154/138
f 149/154/139 150/153/139 152/155/139 151/156/139
f 151/156/140 152/155/140 154/157/140 153/158/140
f 153/158/141 154/157/141 156/159/141 155/160/141
f 155/160/142 156/159/142 158/161/142 157/162/142
f 157/162/143 158/161/143 160/163/143 159/164/143
f 159/164/144 160/163/144 162/165/144 161/166/144
f 161/166/145 162/165/145 164/167/145 163/168/145
f 163/168/146 164/167/146 166/169/146 165/170/146
f 165/170/147 166/169/147 168/171/147 167/172/147
f 167/172/148 168/171/148 170/173/148 169/174/148
f 169/174/149 170/173/149 172/175/149 171/176/149
f 171/176/150 172/175/150 174/177/150 173/178/150
f 173/178/151 174/177/151 176/179/151 175/180/151
f 175/180/152 176/179/152 178/181/152 177/182/152
f 177/182/153 178/181/153 180/183/153 179/184/153
f 179/184/154 180/183/154 182/185/154 181/186/154
f 181/186/155 182/185/155 184/187/155 183/188/155
f 183/188/156 184/187/156 186/189/156 185/190/156
f 185/190/157 186/189/157 188/191/157 187/192/157
f 187/192/158 188/191/158 190/193/158 189/194/158
f 189/194/159 190/193/159 192/195/159 191/196/159
f 191/196/160 192/195/160 130/197/160 129/198/160
f 193/199/161 195/200/161 196/201/161 194/202/161
f 195/200/162 197/203/162 198/204/162 196/201/162
f 197/203/163 199/205/163 200/206/163 198/204/163
f 199/205/164 201/207/164 202/208/164 200/206/164
f 201/207/165 203/209/165 204/210/165 202/208/165
f 203/209/166 205/211/166 206/212/166 204/210/166
f 205/211/167 207/213/167 208/214/167 206/212/167
f 207/213/168 209/215/168 210/216/168 208/214/168
f 209/215/169 211/217/169 212/218/169 210/216/169
f 211/217/170 213/219/170 214/220/170 212/218/170
f 213/219/171 215/221/171 216/222/171 214/220/171
f 215/221/172 217/223/172 218/224/172 216/222/172
f 217/223/173 219/225/173 220/226/173 218/224/173
f 219/225/174 221/227/174 222/228/174 220/226/174
f 221/227/175 223/229/175 224/230/175 222/228/175
f 223/229/176 225/231/176 226/232/176 224/230/176
f 225/231/177 227/233/177 228/234/177 226/232/177
f 227/233/178 229/235/178 230/236/178 228/234/178
f 229/235/179 231/237/179 232/238/179 230/236/179
f 231/237/180 233/239/180 234/240/180 232/238/180
f 233/239/181 235/241/181 236/242/181 234/240/181
f 235/241/182 237/243/182 238/244/182 236/242/182
f 237/243/183 239/245/183 240/246/183 238/244/183
f 239/245/184 241/247/184 242/248/184 240/246/184
f 241/247/185 243/249/185 244/250/185 242/248/185
f 243/249/186 245/251/186 246/252/186 244/250/186
f 245/251/187 247/253/187 248/254/187 246/252/187
f 247/253/188 249/255/188 250/256/188 248/254/188
f 249/255/189 251/257/189 252/258/189 250/256/189
f 251/257/190 253/259/190 254/260/190 252/258/190
f 253/259/191 255/261/191 256/262/191 254/260/191
f 255/261/192 193/263/192 194/264/192 256/262/192
f 129/133/193 131/136/193 195/200/193 193/199/193
f 132/135/194 130/134/194 194/202/194 196/201/194
f 131/136/195 133/138/195 197/203/195 195/200/195
f 134/137/196 132/135/196 196/201/196 198/204/196
f 133/138/197 135/140/197 199/205/197 197/203/197
f 136/139/198 134/137/198 198/204/198 200/206/198
f 135/140/199 137/142/199 201/207/199 199/205/199
f 138/141/200 136/139/200 200/206/200 202/208/200
f 137/142/201 139/144/201 203/209/201 201/207/201
f 140/143/202 138/141/202 202/208/202 204/210/202
f 139/144/203 141/146/203 205/211/203 203/209/203
f 142/145/204 140/143/204 204/210/204 206/212/204
f 141/146/205 143/148/205 207/213/205 205/211/205
f 144/147/206 142/145/206 206/212/206 208/214/206
f 143/148/207 145/150/207 209/215/207 207/213/207
f 146/149/208 144/147/208 208/214/208 210/216/208
f 145/150/209 147/152/209 211/217/209 209/215/209
f 148/151/210 146/149/210 210/216/210 212/218/210
f 147/152/211 149/154/211 213/219/211 211/217/211
f 150/153/212 148/151/212 212/218/212 214/220/212
f 149/154/213 151/156/213 215/221/213 213/219/213
f 152/155/214 150/153/214 214/220/214 216/222/214
f 151/156/215 153/158/215 217/223/215 215/221/215
f 154/157/216 152/155/216 216/222/216 218/224/216
f 153/158/217 155/160/217 219/225/217 217/223/217
f 156/159/218 154/157/218 218/224/218 220/226/218
f 155/160/219 157/162/219 221/227/219 219/225/219
f 158/161/220 156/159/220 220/226/220 222/228/220
f 157/162/221 159/164/221 223/229/221 221/227/221
f 160/163/222 158/161/222 222/228/222 224/230/222
f 159/164/223 161/166/223 225/231/223 223/229/223
f 162/165/224 160/163/224 224/230/224 226/232/224
f 161/166/225 163/168/225 227/233/225 225/231/225
f 164/167/226 162/165/226 226/232/226 228/234/226
f 163/168/227 165/170/227 229/235/227 227/233/227
f 166/169/228 164/167/228 228/234/228 230/236/228
f 165/170/229 167/172/229 231/237/229 229/235/229
f 168/171/230 166/169/230 230/236/230 232/238/230
f 167/172/231 169/174/231 233/239/231 231/237/231
f 170/173/232 168/171/232 232/238/232 234/240/232
f 169/174/233 171/176/233 235/241/233 233/239/233
f 172/175/234 170/173/234 234/240/234 236/242/234
f 171/176/235 173/178/235 237/243/235 235/241/235
f 174/177/236 172/175/236 236/242/236 238/244/236
f 173/178/237 175/180/237 239/245/237 237/243/237
f 176/179/238 174/177/238 238/244/238 240/246/238
f 175/180/239 177/182/239 241/247/239 239/245/239
f 178/181/240 176/179/240 240/246/240 242/248/240
f 177/182/241 179/184/241 243/249/241 241/247/241
f 180/183/242 178/181/242 242/248/242 244/250/242
f 179/184/243 181/186/243 245/251/243 243/249/243
f 182/185/244 180/183/244 244/250/244 246/252/244
f 181/186/245 183/188/245 247/253/245 245/251/245
f 184/187/246 182/185/246 246/252/246 248/254/246
f 183/188/247 185/190/247 249/255/247 247/253/247
f 186/189/248 184/187/248 248/254/248 250/256/248
f 185/190/249 187/192/249 251/257/249 249/255/249
f 188/191/250 186/189/250 250/256/250 252/258/250
f 187/192/251 189/194/251 253/259/251 251/257/251
f 190/193/252 188/191/252 252/258/252 254/260/252
f 189/194/253 191/196/253 255/261/253 253/259/253
f 192/195/254 190/193/254 254/260/254 256/262/254
f 191/196/255 129/198/255 193/263/255 255/261/255
f 130/197/256 192/195/256 256/262/256 194/264/256
o Cylinder.002_Cylinder.005
v -29.868347 -13.271517 145.592407
v -36.647713 54.172268 178.638275
v -57.698109 -13.271517 136.967865
v -70.794113 54.172268 168.056152
v -83.310562 -13.271517 123.079712
v -102.219994 54.172268 151.015747
v -105.721466 -13.271517 104.461685
v -129.717590 54.172268 128.171936
v -124.069496 -13.271517 81.829239
v -152.230148 54.172268 100.402435
v -137.649628 -13.271517 56.052185
v -168.892700 54.172268 68.774612
v -145.939972 -13.271517 28.121038
v -179.064697 54.172268 34.503838
v -148.621902 -13.271517 -0.890770
v -182.355362 54.172268 -1.092918
v -145.592392 -13.271517 -29.868359
v -178.638245 54.172268 -36.647705
v -136.967850 -13.271517 -57.698112
v -168.056107 54.172268 -70.794113
v -123.079727 -13.271517 -83.310570
v -151.015778 54.172268 -102.219971
v -104.461723 -13.271517 -105.721451
v -128.171921 54.172268 -129.717606
v -81.829239 -13.271517 -124.069496
v -100.402435 54.172268 -152.230148
v -56.052174 -13.271517 -137.649643
v -68.774605 54.172268 -168.892715
v -28.121038 -13.271517 -145.939972
v -34.503838 54.172268 -179.064697
v 0.890785 -13.271517 -148.621918
v 1.092941 54.172268 -182.355362
v 29.868382 -13.271517 -145.592407
v 36.647717 54.172268 -178.638229
v 57.698109 -13.271517 -136.967865
v 70.794098 54.172268 -168.056152
v 83.310577 -13.271517 -123.079712
v 102.219978 54.172268 -151.015747
v 105.721458 -13.271517 -104.461685
v 129.717606 54.172268 -128.171875
v 124.069496 -13.271517 -81.829262
v 152.230148 54.172268 -100.402443
v 137.649628 -13.271517 -56.052208
v 168.892639 54.172268 -68.774673
v 145.939972 -13.271517 -28.121056
v 179.064682 54.172268 -34.503857
v 148.621933 -13.271517 0.890762
v 182.355362 54.172268 1.092918
v 145.592407 -13.271517 29.868355
v 178.638229 54.172268 36.647709
v 136.967850 -13.271517 57.698128
v 168.056107 54.172268 70.794136
v 123.079712 -13.271517 83.310593
v 151.015747 54.172268 102.219994
v 104.461723 -13.271517 105.721420
v 128.171906 54.172268 129.717529
v 81.829269 -13.271517 124.069504
v 100.402481 54.172268 152.230164
v 56.052177 -13.271517 137.649628
v 68.774628 54.172268 168.892700
v 28.121042 -13.271517 145.939987
v 34.503834 54.172268 179.064697
v -0.890781 -13.271517 148.621933
v -1.092949 54.172268 182.355377
v -29.868069 -12.351809 145.591049
v -36.647526 54.738121 178.637421
v -57.697559 -12.351809 136.966553
v -70.793777 54.738121 168.055359
v -83.309776 -12.351809 123.078552
v -102.219482 54.738121 151.015030
v -105.720451 -12.351809 104.460709
v -129.716980 54.738121 128.171310
v -124.068329 -12.351809 81.828476
v -152.229462 54.738121 100.401962
v -137.648331 -12.351809 56.051659
v -168.891891 54.738121 68.774284
v -145.938599 -12.351809 28.120777
v -179.063843 54.738121 34.503674
v -148.620514 -12.351809 -0.890755
v -182.354492 54.738121 -1.092918
v -145.591034 -12.351809 -29.868076
v -178.637390 54.738121 -36.647533
v -136.966537 -12.351809 -57.697563
v -168.055328 54.738121 -70.793777
v -123.078568 -12.351809 -83.309769
v -151.015030 54.738121 -102.219482
v -104.460724 -12.351809 -105.720444
v -128.171295 54.738121 -129.716995
v -81.828476 -12.351809 -124.068329
v -100.401955 54.738121 -152.229431
v -56.051651 -12.351809 -137.648361
v -68.774277 54.738121 -168.891907
v -28.120768 -12.351809 -145.938614
v -34.503677 54.738121 -179.063843
v 0.890774 -12.351809 -148.620514
v 1.092934 54.738121 -182.354492
v 29.868088 -12.351809 -145.591049
v 36.647530 54.738121 -178.637375
v 57.697556 -12.351809 -136.966568
v 70.793762 54.738121 -168.055344
v 83.309792 -12.351809 -123.078560
v 102.219467 54.738121 -151.015015
v 105.720451 -12.351809 -104.460709
v 129.716980 54.738121 -128.171265
v 124.068344 -12.351809 -81.828491
v 152.229462 54.738121 -100.401985
v 137.648331 -12.351809 -56.051678
v 168.891861 54.738121 -68.774353
v 145.938599 -12.351809 -28.120785
v 179.063828 54.738121 -34.503704
v 148.620514 -12.351809 0.890766
v 182.354477 54.738121 1.092922
v 145.591049 -12.351809 29.868073
v 178.637390 54.738121 36.647533
v 136.966568 -12.351809 57.697582
v 168.055328 54.738121 70.793793
v 123.078552 -12.351809 83.309814
v 151.015015 54.738121 102.219521
v 104.460739 -12.351809 105.720413
v 128.171295 54.738121 129.716919
v 81.828514 -12.351809 124.068336
v 100.402008 54.738121 152.229462
v 56.051651 -12.351809 137.648331
v 68.774307 54.738121 168.891891
v 28.120768 -12.351809 145.938614
v 34.503670 54.738121 179.063843
v -0.890774 -12.351809 148.620514
v -1.092957 54.738121 182.354538
vt 0.000000 1.000001
vt 0.000000 0.010139
vt 0.031250 0.010139
vt 0.031250 1.000001
vt 0.062500 0.010139
vt 0.062500 1.000001
vt 0.093750 0.010139
vt 0.093750 1.000001
vt 0.125000 0.010139
vt 0.125000 1.000001
vt 0.156250 0.010139
vt 0.156250 1.000001
vt 0.187500 0.010139
vt 0.187500 1.000000
vt 0.218750 0.010139
vt 0.218750 1.000000
vt 0.250000 0.010138
vt 0.250000 1.000000
vt 0.281250 0.010138
vt 0.281250 1.000000
vt 0.312500 0.010138
vt 0.312500 1.000000
vt 0.343750 0.010138
vt 0.343750 1.000000
vt 0.375000 0.010138
vt 0.375000 1.000000
vt 0.406250 0.010138
vt 0.406250 1.000000
vt 0.437500 0.010138
vt 0.437500 1.000000
vt 0.468750 0.010138
vt 0.468750 1.000000
vt 0.500000 0.010138
vt 0.500000 1.000000
vt 0.531250 0.010138
vt 0.531250 1.000000
vt 0.562500 0.010138
vt 0.562500 1.000000
vt 0.593750 0.010138
vt 0.593750 1.000000
vt 0.625000 0.010138
vt 0.625000 1.000000
vt 0.656250 0.010138
vt 0.656250 1.000000
vt 0.687500 0.010138
vt 0.687500 1.000000
vt 0.718750 0.010138
vt 0.718750 1.000000
vt 0.750000 0.010138
vt 0.750000 1.000000
vt 0.781250 0.010138
vt 0.781250 1.000000
vt 0.812500 0.010138
vt 0.812500 1.000000
vt 0.843750 0.010137
vt 0.843750 1.000000
vt 0.875000 0.010137
vt 0.875000 0.999999
vt 0.906250 0.010137
vt 0.906250 0.999999
vt 0.937500 0.010137
vt 0.937500 0.999999
vt 0.968750 0.010137
vt 0.968750 0.999999
vt 1.000000 0.010137
vt 1.000000 0.999999
vt 0.000000 1.000001
vt 0.031250 1.000001
vt 0.031250 0.010139
vt 0.000000 0.010139
vt 0.062500 1.000001
vt 0.062500 0.010139
vt 0.093750 1.000001
vt 0.093750 0.010139
vt 0.125000 1.000001
vt 0.125000 0.010139
vt 0.156250 1.000001
vt 0.156250 0.010139
vt 0.187500 1.000000
vt 0.187500 0.010139
vt 0.218750 1.000000
vt 0.218750 0.010139
vt 0.250000 1.000000
vt 0.250000 0.010138
vt 0.281250 1.000000
vt 0.281250 0.010138
vt 0.312500 1.000000
vt 0.312500 0.010138
vt 0.343750 1.000000
vt 0.343750 0.010138
vt 0.375000 1.000000
vt 0.375000 0.010138
vt 0.406250 1.000000
vt 0.406250 0.010138
vt 0.437500 1.000000
vt 0.437500 0.010138
vt 0.468750 1.000000
vt 0.468750 0.010138
vt 0.500000 1.000000
vt 0.500000 0.010138
vt 0.531250 1.000000
vt 0.531250 0.010138
vt 0.562500 1.000000
vt 0.562500 0.010138
vt 0.593750 1.000000
vt 0.593750 0.010138
vt 0.625000 1.000000
vt 0.625000 0.010138
vt 0.656250 1.000000
vt 0.656250 0.010138
vt 0.687500 1.000000
vt 0.687500 0.010138
vt 0.718750 1.000000
vt 0.718750 0.010138
vt 0.750000 1.000000
vt 0.750000 0.010138
vt 0.781250 1.000000
vt 0.781250 0.010138
vt 0.812500 1.000000
vt 0.812500 0.010138
vt 0.843750 1.000000
vt 0.843750 0.010137
vt 0.875000 0.999999
vt 0.875000 0.010137
vt 0.906250 0.999999
vt 0.906250 0.010137
vt 0.937500 0.999999
vt 0.937500 0.010137
vt 0.968750 0.999999
vt 0.968750 0.010137
vt 1.000000 0.999999
vt 1.000000 0.010137
vn -0.2650 -0.4456 0.8551
vn -0.4267 -0.4456 0.7870
vn -0.5721 -0.4456 0.6886
vn -0.6954 -0.4456 0.5638
vn -0.7920 -0.4456 0.4173
vn -0.8582 -0.4456 0.2547
vn -0.8914 -0.4456 0.0824
vn -0.8904 -0.4456 -0.0931
vn -0.8551 -0.4456 -0.2650
vn -0.7870 -0.4456 -0.4267
vn -0.6886 -0.4456 -0.5721
vn -0.5638 -0.4456 -0.6954
vn -0.4173 -0.4456 -0.7920
vn -0.2547 -0.4456 -0.8582
vn -0.0824 -0.4456 -0.8914
vn 0.0931 -0.4456 -0.8904
vn 0.2650 -0.4456 -0.8551
vn 0.4267 -0.4456 -0.7870
vn 0.5721 -0.4456 -0.6886
vn 0.6954 -0.4456 -0.5638
vn 0.7920 -0.4456 -0.4173
vn 0.8582 -0.4456 -0.2547
vn 0.8914 -0.4456 -0.0824
vn 0.8904 -0.4456 0.0931
vn 0.8551 -0.4456 0.2650
vn 0.7870 -0.4456 0.4267
vn 0.6886 -0.4456 0.5721
vn 0.5638 -0.4456 0.6954
vn 0.4173 -0.4456 0.7920
vn 0.2547 -0.4456 0.8582
vn 0.0824 -0.4456 0.8914
vn -0.0931 -0.4456 0.8904
vn 0.2647 0.4475 -0.8542
vn 0.4263 0.4475 -0.7861
vn 0.5715 0.4475 -0.6879
vn 0.6947 0.4475 -0.5632
vn 0.7912 0.4475 -0.4168
vn 0.8573 0.4475 -0.2545
vn 0.8905 0.4475 -0.0823
vn 0.8894 0.4475 0.0930
vn 0.8542 0.4475 0.2647
vn 0.7861 0.4475 0.4263
vn 0.6879 0.4475 0.5715
vn 0.5632 0.4475 0.6947
vn 0.4168 0.4475 0.7912
vn 0.2545 0.4475 0.8573
vn 0.0823 0.4475 0.8905
vn -0.0930 0.4475 0.8894
vn -0.2647 0.4475 0.8542
vn -0.4263 0.4475 0.7861
vn -0.5715 0.4475 0.6879
vn -0.6947 0.4475 0.5632
vn -0.7912 0.4475 0.4168
vn -0.8573 0.4475 0.2545
vn -0.8905 0.4475 0.0823
vn -0.8894 0.4475 -0.0930
vn -0.8542 0.4475 -0.2647
vn -0.7861 0.4475 -0.4263
vn -0.6879 0.4475 -0.5715
vn -0.5632 0.4475 -0.6947
vn -0.4168 0.4475 -0.7912
vn -0.2545 0.4475 -0.8573
vn -0.0823 0.4475 -0.8905
vn 0.0930 0.4475 -0.8894
vn 0.2960 -0.0015 -0.9552
vn -0.2960 0.0015 0.9552
vn 0.4767 -0.0015 -0.8791
vn -0.4767 0.0015 0.8791
vn 0.6390 -0.0015 -0.7692
vn -0.6390 0.0015 0.7692
vn 0.7768 -0.0015 -0.6297
vn -0.7768 0.0015 0.6297
vn 0.8847 -0.0015 -0.4661
vn -0.8847 0.0015 0.4661
vn 0.9587 -0.0015 -0.2845
vn -0.9587 0.0015 0.2845
vn 0.9958 -0.0015 -0.0921
vn -0.9958 0.0015 0.0921
vn 0.9946 -0.0015 0.1040
vn -0.9946 0.0015 -0.1040
vn 0.9552 -0.0015 0.2960
vn -0.9552 0.0015 -0.2960
vn 0.8791 -0.0015 0.4767
vn -0.8791 0.0015 -0.4767
vn 0.7692 -0.0015 0.6390
vn -0.7692 0.0015 -0.6390
vn 0.6297 -0.0015 0.7768
vn -0.6297 0.0015 -0.7768
vn 0.4661 -0.0015 0.8847
vn -0.4661 0.0015 -0.8847
vn 0.2845 -0.0015 0.9587
vn -0.2845 0.0015 -0.9587
vn 0.0921 -0.0015 0.9958
vn -0.0921 0.0015 -0.9958
vn -0.1040 -0.0015 0.9946
vn 0.1040 0.0015 -0.9946
vn -0.2960 -0.0015 0.9552
vn 0.2960 0.0015 -0.9552
vn -0.4767 -0.0015 0.8791
vn 0.4767 0.0015 -0.8791
vn -0.6390 -0.0015 0.7692
vn 0.6390 0.0015 -0.7692
vn -0.7768 -0.0015 0.6297
vn 0.7768 0.0015 -0.6297
vn -0.8847 -0.0015 0.4661
vn 0.8847 0.0015 -0.4661
vn -0.9587 -0.0015 0.2845
vn 0.9587 0.0015 -0.2845
vn -0.9958 -0.0015 0.0921
vn 0.9958 0.0015 -0.0921
vn -0.9946 -0.0015 -0.1040
vn 0.9946 0.0015 0.1040
vn -0.9552 -0.0015 -0.2960
vn 0.9552 0.0015 0.2960
vn -0.8791 -0.0015 -0.4767
vn 0.8791 0.0015 0.4767
vn -0.7692 -0.0015 -0.6390
vn 0.7692 0.0015 0.6390
vn -0.6297 -0.0015 -0.7768
vn 0.6297 0.0015 0.7768
vn -0.4661 -0.0015 -0.8847
vn 0.4661 0.0015 0.8847
vn -0.2845 -0.0015 -0.9587
vn 0.2845 0.0015 0.9587
vn -0.0921 -0.0015 -0.9958
vn 0.0921 0.0015 0.9958
vn 0.1040 -0.0015 -0.9946
vn -0.1040 0.0015 0.9946
usemtl Material.001
s off
f 257/265/257 258/266/257 260/267/257 259/268/257
f 259/268/258 260/267/258 262/269/258 261/270/258
f 261/270/259 262/269/259 264/271/259 263/272/259
f 263/272/260 264/271/260 266/273/260 265/274/260
f 265/274/261 266/273/261 268/275/261 267/276/261
f 267/276/262 268/275/262 270/277/262 269/278/262
f 269/278/263 270/277/263 272/279/263 271/280/263
f 271/280/264 272/279/264 274/281/264 273/282/264
f 273/282/265 274/281/265 276/283/265 275/284/265
f 275/284/266 276/283/266 278/285/266 277/286/266
f 277/286/267 278/285/267 280/287/267 279/288/267
f 279/288/268 280/287/268 282/289/268 281/290/268
f 281/290/269 282/289/269 284/291/269 283/292/269
f 283/292/270 284/291/270 286/293/270 285/294/270
f 285/294/271 286/293/271 288/295/271 287/296/271
f 287/296/272 288/295/272 290/297/272 289/298/272
f 289/298/273 290/297/273 292/299/273 291/300/273
f 291/300/274 292/299/274 294/301/274 293/302/274
f 293/302/275 294/301/275 296/303/275 295/304/275
f 295/304/276 296/303/276 298/305/276 297/306/276
f 297/306/277 298/305/277 300/307/277 299/308/277
f 299/308/278 300/307/278 302/309/278 301/310/278
f 301/310/279 302/309/279 304/311/279 303/312/279
f 303/312/280 304/311/280 306/313/280 305/314/280
f 305/314/281 306/313/281 308/315/281 307/316/281
f 307/316/282 308/315/282 310/317/282 309/318/282
f 309/318/283 310/317/283 312/319/283 311/320/283
f 311/320/284 312/319/284 314/321/284 313/322/284
f 313/322/285 314/321/285 316/323/285 315/324/285
f 315/324/286 316/323/286 318/325/286 317/326/286
f 317/326/287 318/325/287 320/327/287 319/328/287
f 319/328/288 320/327/288 258/329/288 257/330/288
f 321/331/289 323/332/289 324/333/289 322/334/289
f 323/332/290 325/335/290 326/336/290 324/333/290
f 325/335/291 327/337/291 328/338/291 326/336/291
f 327/337/292 329/339/292 330/340/292 328/338/292
f 329/339/293 331/341/293 332/342/293 330/340/293
f 331/341/294 333/343/294 334/344/294 332/342/294
f 333/343/295 335/345/295 336/346/295 334/344/295
f 335/345/296 337/347/296 338/348/296 336/346/296
f 337/347/297 339/349/297 340/350/297 338/348/297
f 339/349/298 341/351/298 342/352/298 340/350/298
f 341/351/299 343/353/299 344/354/299 342/352/299
f 343/353/300 345/355/300 346/356/300 344/354/300
f 345/355/301 347/357/301 348/358/301 346/356/301
f 347/357/302 349/359/302 350/360/302 348/358/302
f 349/359/303 351/361/303 352/362/303 350/360/303
f 351/361/304 353/363/304 354/364/304 352/362/304
f 353/363/305 355/365/305 356/366/305 354/364/305
f 355/365/306 357/367/306 358/368/306 356/366/306
f 357/367/307 359/369/307 360/370/307 358/368/307
f 359/369/308 361/371/308 362/372/308 360/370/308
f 361/371/309 363/373/309 364/374/309 362/372/309
f 363/373/310 365/375/310 366/376/310 364/374/310
f 365/375/311 367/377/311 368/378/311 366/376/311
f 367/377/312 369/379/312 370/380/312 368/378/312
f 369/379/313 371/381/313 372/382/313 370/380/313
f 371/381/314 373/383/314 374/384/314 372/382/314
f 373/383/315 375/385/315 376/386/315 374/384/315
f 375/385/316 377/387/316 378/388/316 376/386/316
f 377/387/317 379/389/317 380/390/317 378/388/317
f 379/389/318 381/391/318 382/392/318 380/390/318
f 381/391/319 383/393/319 384/394/319 382/392/319
f 383/393/320 321/395/320 322/396/320 384/394/320
f 257/265/321 259/268/321 323/332/321 321/331/321
f 260/267/322 258/266/322 322/334/322 324/333/322
f 259/268/323 261/270/323 325/335/323 323/332/323
f 262/269/324 260/267/324 324/333/324 326/336/324
f 261/270/325 263/272/325 327/337/325 325/335/325
f 264/271/326 262/269/326 326/336/326 328/338/326
f 263/272/327 265/274/327 329/339/327 327/337/327
f 266/273/328 264/271/328 328/338/328 330/340/328
f 265/274/329 267/276/329 331/341/329 329/339/329
f 268/275/330 266/273/330 330/340/330 332/342/330
f 267/276/331 269/278/331 333/343/331 331/341/331
f 270/277/332 268/275/332 332/342/332 334/344/332
f 269/278/333 271/280/333 335/345/333 333/343/333
f 272/279/334 270/277/334 334/344/334 336/346/334
f 271/280/335 273/282/335 337/347/335 335/345/335
f 274/281/336 272/279/336 336/346/336 338/348/336
f 273/282/337 275/284/337 339/349/337 337/347/337
f 276/283/338 274/281/338 338/348/338 340/350/338
f 275/284/339 277/286/339 341/351/339 339/349/339
f 278/285/340 276/283/340 340/350/340 342/352/340
f 277/286/341 279/288/341 343/353/341 341/351/341
f 280/287/342 278/285/342 342/352/342 344/354/342
f 279/288/343 281/290/343 345/355/343 343/353/343
f 282/289/344 280/287/344 344/354/344 346/356/344
f 281/290/345 283/292/345 347/357/345 345/355/345
f 284/291/346 282/289/346 346/356/346 348/358/346
f 283/292/347 285/294/347 349/359/347 347/357/347
f 286/293/348 284/291/348 348/358/348 350/360/348
f 285/294/349 287/296/349 351/361/349 349/359/349
f 288/295/350 286/293/350 350/360/350 352/362/350
f 287/296/351 289/298/351 353/363/351 351/361/351
f 290/297/352 288/295/352 352/362/352 354/364/352
f 289/298/353 291/300/353 355/365/353 353/363/353
f 292/299/354 290/297/354 354/364/354 356/366/354
f 291/300/355 293/302/355 357/367/355 355/365/355
f 294/301/356 292/299/356 356/366/356 358/368/356
f 293/302/357 295/304/357 359/369/357 357/367/357
f 296/303/358 294/301/358 358/368/358 360/370/358
f 295/304/359 297/306/359 361/371/359 359/369/359
f 298/305/360 296/303/360 360/370/360 362/372/360
f 297/306/361 299/308/361 363/373/361 361/371/361
f 300/307/362 298/305/362 362/372/362 364/374/362
f 299/308/363 301/310/363 365/375/363 363/373/363
f 302/309/364 300/307/364 364/374/364 366/376/364
f 301/310/365 303/312/365 367/377/365 365/375/365
f 304/311/366 302/309/366 366/376/366 368/378/366
f 303/312/367 305/314/367 369/379/367 367/377/367
f 306/313/368 304/311/368 368/378/368 370/380/368
f 305/314/369 307/316/369 371/381/369 369/379/369
f 308/315/370 306/313/370 370/380/370 372/382/370
f 307/316/371 309/318/371 373/383/371 371/381/371
f 310/317/372 308/315/372 372/382/372 374/384/372
f 309/318/373 311/320/373 375/385/373 373/383/373
f 312/319/374 310/317/374 374/384/374 376/386/374
f 311/320/375 313/322/375 377/387/375 375/385/375
f 314/321/376 312/319/376 376/386/376 378/388/376
f 313/322/377 315/324/377 379/389/377 377/387/377
f 316/323/378 314/321/378 378/388/378 380/390/378
f 315/324/379 317/326/379 381/391/379 379/389/379
f 318/325/380 316/323/380 380/390/380 382/392/380
f 317/326/381 319/328/381 383/393/381 381/391/381
f 320/327/382 318/325/382 382/392/382 384/394/382
f 319/328/383 257/330/383 321/395/383 383/393/383
f 258/329/384 320/327/384 384/394/384 322/396/384
