# Blender v3.1.2 OBJ File: 'slclouds.blend'
# www.blender.org
mtllib slclouds.mtl
o Cylinder
v 0.000000 -2.286907 -96.000000
v -0.000000 59.489830 -113.333298
v 18.728672 -2.286907 -94.155380
v 22.110231 59.489830 -111.155624
v 36.737610 -2.286907 -88.692429
v 43.370777 59.489830 -104.706306
v 53.334743 -2.286907 -79.821083
v 62.964611 59.489830 -94.233200
v 67.882248 -2.286907 -67.882248
v 80.138741 59.489830 -80.138741
v 79.821083 -2.286907 -53.334743
v 94.233200 59.489830 -62.964611
v 88.692429 -2.286907 -36.737610
v 104.706306 59.489830 -43.370777
v 94.155380 -2.286907 -18.728674
v 111.155624 59.489830 -22.110233
v 96.000000 -2.286907 0.000004
v 113.333298 59.489830 0.000005
v 94.155380 -2.286907 18.728672
v 111.155624 59.489830 22.110231
v 88.692436 -2.286907 36.737606
v 104.706322 59.489830 43.370773
v 79.821091 -2.286907 53.334740
v 94.233208 59.489830 62.964607
v 67.882248 -2.286907 67.882248
v 80.138741 59.489830 80.138741
v 53.334740 -2.286907 79.821091
v 62.964603 59.489830 94.233208
v 36.737614 -2.286907 88.692429
v 43.370781 59.489830 104.706306
v 18.728670 -2.286907 94.155388
v 22.110229 59.489830 111.155632
v -0.000008 -2.286907 96.000000
v -0.000010 59.489830 113.333298
v -18.728664 -2.286907 94.155388
v -22.110224 59.489830 111.155632
v -36.737610 -2.286907 88.692429
v -43.370777 59.489830 104.706306
v -53.334747 -2.286907 79.821075
v -62.964615 59.489830 94.233185
v -67.882248 -2.286907 67.882256
v -80.138741 59.489830 80.138748
v -79.821068 -2.286907 53.334763
v -94.233177 59.489830 62.964634
v -88.692429 -2.286907 36.737625
v -104.706306 59.489830 43.370796
v -94.155380 -2.286907 18.728676
v -111.155624 59.489830 22.110235
v -96.000000 -2.286907 -0.000001
v -113.333298 59.489830 -0.000002
v -94.155380 -2.286907 -18.728680
v -111.155624 59.489830 -22.110241
v -88.692429 -2.286907 -36.737625
v -104.706306 59.489830 -43.370796
v -79.821091 -2.286907 -53.334724
v -94.233208 59.489830 -62.964588
v -67.882263 -2.286907 -67.882248
v -80.138763 59.489830 -80.138741
v -53.334747 -2.286907 -79.821083
v -62.964615 59.489830 -94.233200
v -36.737610 -2.286907 -88.692436
v -43.370777 59.489830 -104.706322
v -18.728662 -2.286907 -94.155388
v -22.110220 59.489830 -111.155632
vt 1.000000 0.010138
vt 1.000000 1.000000
vt 0.968750 1.000000
vt 0.968750 0.010138
vt 0.937500 1.000000
vt 0.937500 0.010138
vt 0.906250 1.000000
vt 0.906250 0.010138
vt 0.875000 1.000000
vt 0.875000 0.010138
vt 0.843750 1.000000
vt 0.843750 0.010138
vt 0.812500 1.000000
vt 0.812500 0.010138
vt 0.781250 1.000000
vt 0.781250 0.010138
vt 0.750000 1.000000
vt 0.750000 0.010138
vt 0.718750 1.000000
vt 0.718750 0.010138
vt 0.687500 1.000000
vt 0.687500 0.010138
vt 0.656250 1.000000
vt 0.656250 0.010138
vt 0.625000 1.000000
vt 0.625000 0.010138
vt 0.593750 1.000000
vt 0.593750 0.010138
vt 0.562500 1.000000
vt 0.562500 0.010138
vt 0.531250 1.000000
vt 0.531250 0.010138
vt 0.500000 1.000000
vt 0.500000 0.010138
vt 0.468750 1.000000
vt 0.468750 0.010138
vt 0.437500 1.000000
vt 0.437500 0.010138
vt 0.406250 1.000000
vt 0.406250 0.010138
vt 0.375000 1.000000
vt 0.375000 0.010138
vt 0.343750 1.000000
vt 0.343750 0.010138
vt 0.312500 1.000000
vt 0.312500 0.010138
vt 0.281250 1.000000
vt 0.281250 0.010138
vt 0.250000 1.000000
vt 0.250000 0.010138
vt 0.218750 1.000000
vt 0.218750 0.010138
vt 0.187500 1.000000
vt 0.187500 0.010138
vt 0.156250 1.000000
vt 0.156250 0.010138
vt 0.125000 1.000000
vt 0.125000 0.010138
vt 0.093750 1.000000
vt 0.093750 0.010138
vt 0.062500 1.000000
vt 0.062500 0.010138
vt 0.031250 1.000000
vt 0.031250 0.010138
vt 0.000000 1.000000
vt 0.000000 0.010138
vn 0.0944 -0.2689 -0.9585
vn 0.2796 -0.2689 -0.9217
vn 0.4540 -0.2689 -0.8494
vn 0.6110 -0.2689 -0.7445
vn 0.7445 -0.2689 -0.6110
vn 0.8494 -0.2689 -0.4540
vn 0.9217 -0.2689 -0.2796
vn 0.9585 -0.2689 -0.0944
vn 0.9585 -0.2689 0.0944
vn 0.9217 -0.2689 0.2796
vn 0.8494 -0.2689 0.4540
vn 0.7445 -0.2689 0.6110
vn 0.6110 -0.2689 0.7445
vn 0.4540 -0.2689 0.8494
vn 0.2796 -0.2689 0.9217
vn 0.0944 -0.2689 0.9585
vn -0.0944 -0.2689 0.9585
vn -0.2796 -0.2689 0.9217
vn -0.4540 -0.2689 0.8494
vn -0.6110 -0.2689 0.7445
vn -0.7445 -0.2689 0.6110
vn -0.8494 -0.2689 0.4540
vn -0.9217 -0.2689 0.2796
vn -0.9585 -0.2689 0.0944
vn -0.9585 -0.2689 -0.0944
vn -0.9217 -0.2689 -0.2796
vn -0.8494 -0.2689 -0.4540
vn -0.7445 -0.2689 -0.6110
vn -0.6110 -0.2689 -0.7445
vn -0.4540 -0.2689 -0.8494
vn -0.2796 -0.2689 -0.9217
vn -0.0944 -0.2689 -0.9585
usemtl Material.001
s off
f 1/1/1 2/2/1 4/3/1 3/4/1
f 3/4/2 4/3/2 6/5/2 5/6/2
f 5/6/3 6/5/3 8/7/3 7/8/3
f 7/8/4 8/7/4 10/9/4 9/10/4
f 9/10/5 10/9/5 12/11/5 11/12/5
f 11/12/6 12/11/6 14/13/6 13/14/6
f 13/14/7 14/13/7 16/15/7 15/16/7
f 15/16/8 16/15/8 18/17/8 17/18/8
f 17/18/9 18/17/9 20/19/9 19/20/9
f 19/20/10 20/19/10 22/21/10 21/22/10
f 21/22/11 22/21/11 24/23/11 23/24/11
f 23/24/12 24/23/12 26/25/12 25/26/12
f 25/26/13 26/25/13 28/27/13 27/28/13
f 27/28/14 28/27/14 30/29/14 29/30/14
f 29/30/15 30/29/15 32/31/15 31/32/15
f 31/32/16 32/31/16 34/33/16 33/34/16
f 33/34/17 34/33/17 36/35/17 35/36/17
f 35/36/18 36/35/18 38/37/18 37/38/18
f 37/38/19 38/37/19 40/39/19 39/40/19
f 39/40/20 40/39/20 42/41/20 41/42/20
f 41/42/21 42/41/21 44/43/21 43/44/21
f 43/44/22 44/43/22 46/45/22 45/46/22
f 45/46/23 46/45/23 48/47/23 47/48/23
f 47/48/24 48/47/24 50/49/24 49/50/24
f 49/50/25 50/49/25 52/51/25 51/52/25
f 51/52/26 52/51/26 54/53/26 53/54/26
f 53/54/27 54/53/27 56/55/27 55/56/27
f 55/56/28 56/55/28 58/57/28 57/58/28
f 57/58/29 58/57/29 60/59/29 59/60/29
f 59/60/30 60/59/30 62/61/30 61/62/30
f 61/62/31 62/61/31 64/63/31 63/64/31
f 63/64/32 64/63/32 2/65/32 1/66/32
o Cylinder.001_Cylinder.002
v -112.072708 0.854557 33.409260
v -223.500839 65.916214 66.626389
v -116.437073 0.854557 10.903004
v -232.204453 65.916214 21.743324
v -116.326836 0.854557 -12.022243
v -231.984619 65.916214 -23.975319
v -111.746239 0.854557 -34.485485
v -222.849808 65.916214 -68.772621
v -102.871277 0.854557 -55.623455
v -205.150879 65.916214 -110.926987
v -90.043045 0.854557 -74.623856
v -179.568207 65.916214 -148.818558
v -73.754486 0.854557 -90.756500
v -147.084808 65.916214 -180.991013
v -54.631607 0.854557 -103.401413
v -108.949028 65.916214 -206.208099
v -33.409252 0.854557 -112.072701
v -66.626373 65.916214 -223.500809
v -10.903000 0.854557 -116.437065
v -21.743309 65.916214 -232.204422
v 12.022236 0.854557 -116.326851
v 23.975307 65.916214 -231.984634
v 34.485470 0.854557 -111.746246
v 68.772644 65.916214 -222.849808
v 55.623455 0.854557 -102.871277
v 110.926987 65.916214 -205.150879
v 74.623871 0.854557 -90.043045
v 148.818573 65.916214 -179.568192
v 90.756500 0.854557 -73.754494
v 180.991013 65.916214 -147.084808
v 103.401436 0.854557 -54.631607
v 206.208145 65.916214 -108.949020
v 112.072708 0.854557 -33.409248
v 223.500793 65.916214 -66.626358
v 116.437073 0.854557 -10.903009
v 232.204453 65.916214 -21.743336
v 116.326836 0.854557 12.022247
v 231.984619 65.916214 23.975327
v 111.746231 0.854557 34.485489
v 222.849762 65.916214 68.772652
v 102.871284 0.854557 55.623451
v 205.150879 65.916214 110.926987
v 90.043053 0.854557 74.623840
v 179.568268 65.916214 148.818481
v 73.754501 0.854557 90.756500
v 147.084839 65.916214 180.990997
v 54.631615 0.854557 103.401428
v 108.949028 65.916214 206.208099
v 33.409260 0.854557 112.072716
v 66.626373 65.916214 223.500809
v 10.902994 0.854557 116.437080
v 21.743290 65.916214 232.204422
v -12.022259 0.854557 116.326843
v -23.975357 65.916214 231.984634
v -34.485447 0.854557 111.746239
v -68.772552 65.916214 222.849777
v -55.623451 0.854557 102.871284
v -110.926971 65.916214 205.150909
v -74.623856 0.854557 90.043037
v -148.818558 65.916214 179.568237
v -90.756516 0.854557 73.754494
v -180.991043 65.916214 147.084824
v -103.401436 0.854557 54.631599
v -206.208176 65.916214 108.949020
vt 1.000000 0.010138
vt 1.000000 1.000000
vt 0.968750 1.000000
vt 0.968750 0.010138
vt 0.937500 1.000000
vt 0.937500 0.010138
vt 0.906250 1.000000
vt 0.906250 0.010138
vt 0.875000 1.000000
vt 0.875000 0.010138
vt 0.843750 1.000000
vt 0.843750 0.010138
vt 0.812500 1.000000
vt 0.812500 0.010138
vt 0.781250 1.000000
vt 0.781250 0.010138
vt 0.750000 1.000000
vt 0.750000 0.010138
vt 0.718750 1.000000
vt 0.718750 0.010138
vt 0.687500 1.000000
vt 0.687500 0.010138
vt 0.656250 1.000000
vt 0.656250 0.010138
vt 0.625000 1.000000
vt 0.625000 0.010138
vt 0.593750 1.000000
vt 0.593750 0.010138
vt 0.562500 1.000000
vt 0.562500 0.010138
vt 0.531250 1.000000
vt 0.531250 0.010138
vt 0.500000 1.000000
vt 0.500000 0.010138
vt 0.468750 1.000000
vt 0.468750 0.010138
vt 0.437500 1.000000
vt 0.437500 0.010138
vt 0.406250 1.000000
vt 0.406250 0.010138
vt 0.375000 1.000000
vt 0.375000 0.010138
vt 0.343750 1.000000
vt 0.343750 0.010138
vt 0.312500 1.000000
vt 0.312500 0.010138
vt 0.281250 1.000000
vt 0.281250 0.010138
vt 0.250000 1.000000
vt 0.250000 0.010138
vt 0.218750 1.000000
vt 0.218750 0.010138
vt 0.187500 1.000000
vt 0.187500 0.010138
vt 0.156250 1.000000
vt 0.156250 0.010138
vt 0.125000 1.000000
vt 0.125000 0.010138
vt 0.093750 1.000000
vt 0.093750 0.010138
vt 0.062500 1.000000
vt 0.062500 0.010138
vt 0.031250 1.000000
vt 0.031250 0.010138
vt 0.000000 1.000000
vt 0.000000 0.010138
vn -0.4811 -0.8717 0.0933
vn -0.4901 -0.8717 -0.0024
vn -0.4802 -0.8717 -0.0979
vn -0.4519 -0.8717 -0.1897
vn -0.4062 -0.8717 -0.2742
vn -0.3449 -0.8717 -0.3482
vn -0.2703 -0.8717 -0.4088
vn -0.1854 -0.8717 -0.4537
vn -0.0933 -0.8717 -0.4811
vn 0.0024 -0.8717 -0.4901
vn 0.0979 -0.8717 -0.4802
vn 0.1897 -0.8717 -0.4519
vn 0.2742 -0.8717 -0.4062
vn 0.3482 -0.8717 -0.3449
vn 0.4088 -0.8717 -0.2703
vn 0.4537 -0.8717 -0.1854
vn 0.4811 -0.8717 -0.0933
vn 0.4901 -0.8717 0.0024
vn 0.4802 -0.8717 0.0979
vn 0.4519 -0.8717 0.1897
vn 0.4062 -0.8717 0.2742
vn 0.3449 -0.8717 0.3482
vn 0.2703 -0.8717 0.4088
vn 0.1854 -0.8717 0.4537
vn 0.0933 -0.8717 0.4811
vn -0.0024 -0.8717 0.4901
vn -0.0979 -0.8717 0.4802
vn -0.1897 -0.8717 0.4519
vn -0.2742 -0.8717 0.4062
vn -0.3482 -0.8717 0.3449
vn -0.4088 -0.8717 0.2703
vn -0.4537 -0.8717 0.1854
usemtl Material.002
s off
f 65/67/33 66/68/33 68/69/33 67/70/33
f 67/70/34 68/69/34 70/71/34 69/72/34
f 69/72/35 70/71/35 72/73/35 71/74/35
f 71/74/36 72/73/36 74/75/36 73/76/36
f 73/76/37 74/75/37 76/77/37 75/78/37
f 75/78/38 76/77/38 78/79/38 77/80/38
f 77/80/39 78/79/39 80/81/39 79/82/39
f 79/82/40 80/81/40 82/83/40 81/84/40
f 81/84/41 82/83/41 84/85/41 83/86/41
f 83/86/42 84/85/42 86/87/42 85/88/42
f 85/88/43 86/87/43 88/89/43 87/90/43
f 87/90/44 88/89/44 90/91/44 89/92/44
f 89/92/45 90/91/45 92/93/45 91/94/45
f 91/94/46 92/93/46 94/95/46 93/96/46
f 93/96/47 94/95/47 96/97/47 95/98/47
f 95/98/48 96/97/48 98/99/48 97/100/48
f 97/100/49 98/99/49 100/101/49 99/102/49
f 99/102/50 100/101/50 102/103/50 101/104/50
f 101/104/51 102/103/51 104/105/51 103/106/51
f 103/106/52 104/105/52 106/107/52 105/108/52
f 105/108/53 106/107/53 108/109/53 107/110/53
f 107/110/54 108/109/54 110/111/54 109/112/54
f 109/112/55 110/111/55 112/113/55 111/114/55
f 111/114/56 112/113/56 114/115/56 113/116/56
f 113/116/57 114/115/57 116/117/57 115/118/57
f 115/118/58 116/117/58 118/119/58 117/120/58
f 117/120/59 118/119/59 120/121/59 119/122/59
f 119/122/60 120/121/60 122/123/60 121/124/60
f 121/124/61 122/123/61 124/125/61 123/126/61
f 123/126/62 124/125/62 126/127/62 125/128/62
f 125/128/63 126/127/63 128/129/63 127/130/63
f 127/130/64 128/129/64 66/131/64 65/132/64
